<svg width="1584" height="396" viewBox="0 0 1584 396" fill="none" xmlns="http://www.w3.org/2000/svg">
<rect width="1584" height="396" fill="#F5F5F5"/>
<g id="Awesome banner" clip-path="url(#clip0_0_1)">
<rect width="1584" height="396" fill="url(#paint0_linear_0_1)"/>
<ellipse id="Ellipse 2" cx="323" cy="64" rx="285" ry="288" fill="url(#paint1_linear_0_1)" fill-opacity="0.1"/>
<g id="copyright">
<path d="M75.95 334.52L72.30 334.52L72.30 311.16L77.20 311.16L83.70 330.04Q83.60 329.02 83.50 327.62Q83.41 326.23 83.33 324.79Q83.25 323.35 83.25 322.23L83.25 311.16L86.90 311.16L86.90 334.52L82 334.52L75.57 315.64Q75.63 316.57 75.73 317.88Q75.82 319.19 75.89 320.57Q75.95 321.94 75.95 323.10L75.95 334.52M98.80 334.84Q96.46 334.84 94.67 333.96Q92.88 333.08 91.89 331.53Q90.90 329.98 90.90 327.93Q90.90 325.78 92.13 324.18Q93.36 322.58 95.34 322.17L95.34 322.10Q93.65 321.75 92.61 320.38Q91.57 319 91.57 317.11Q91.57 315.26 92.48 313.85Q93.39 312.44 95.02 311.64Q96.66 310.84 98.80 310.84Q100.94 310.84 102.59 311.64Q104.24 312.44 105.15 313.85Q106.06 315.26 106.06 317.11Q106.06 319 105.01 320.38Q103.95 321.75 102.26 322.10L102.26 322.17Q104.24 322.58 105.47 324.18Q106.70 325.78 106.70 327.93Q106.70 329.98 105.71 331.53Q104.72 333.08 102.93 333.96Q101.14 334.84 98.80 334.84M98.80 320.73Q100.30 320.73 101.23 319.82Q102.16 318.90 102.16 317.46Q102.16 315.99 101.23 315.08Q100.30 314.17 98.80 314.17Q97.30 314.17 96.37 315.08Q95.44 315.99 95.44 317.46Q95.44 318.90 96.37 319.82Q97.30 320.73 98.80 320.73M98.80 331.45Q100.56 331.45 101.68 330.42Q102.80 329.40 102.80 327.74Q102.80 326.04 101.68 325Q100.56 323.96 98.80 323.96Q97.04 323.96 95.92 325Q94.80 326.04 94.80 327.74Q94.80 329.40 95.92 330.42Q97.04 331.45 98.80 331.45M114.35 334.52L110.70 334.52L110.70 311.16L115.60 311.16L122.10 330.04Q122 329.02 121.90 327.62Q121.81 326.23 121.73 324.79Q121.65 323.35 121.65 322.23L121.65 311.16L125.30 311.16L125.30 334.52L120.40 334.52L113.97 315.64Q114.03 316.57 114.13 317.88Q114.22 319.19 114.29 320.57Q114.35 321.94 114.35 323.10" fill="white" fill-opacity="0.9"/>
<path d="M161.48 325.24L151.24 325.24L151.24 322.68L161.48 322.68" fill="white" fill-opacity="0.9"/>
<path d="M195.02 334.84Q191.82 334.84 189.96 333.05Q188.11 331.26 188.11 328.12L188.11 317.56Q188.11 314.42 189.96 312.63Q191.82 310.84 195.02 310.84Q198.15 310.84 200.01 312.65Q201.87 314.46 201.87 317.56L198.99 317.56Q198.99 315.58 197.95 314.50Q196.91 313.43 195.02 313.43Q193.13 313.43 192.06 314.50Q190.99 315.58 190.99 317.56L190.99 328.12Q190.99 330.10 192.06 331.18Q193.13 332.25 195.02 332.25Q196.91 332.25 197.95 331.18Q198.99 330.10 198.99 328.12L201.87 328.12Q201.87 331.22 200.01 333.03Q198.15 334.84 195.02 334.84" fill="white" fill-opacity="0.9"/>
<path d="M213.96 334.84Q210.83 334.84 209 333.02Q207.18 331.19 207.18 327.80L207.18 317.88Q207.18 314.49 209 312.66Q210.83 310.84 213.96 310.84Q217.10 310.84 218.92 312.66Q220.75 314.49 220.75 317.85L220.75 327.80Q220.75 331.19 218.92 333.02Q217.10 334.84 213.96 334.84M213.96 332.25Q215.85 332.25 216.86 331.18Q217.87 330.10 217.87 328.12L217.87 317.56Q217.87 315.58 216.86 314.50Q215.85 313.43 213.96 313.43Q212.11 313.43 211.08 314.50Q210.06 315.58 210.06 317.56L210.06 328.12Q210.06 330.10 211.08 331.18Q212.11 332.25 213.96 332.25" fill="white" fill-opacity="0.9"/>
<path d="M228.65 334.52L225.87 334.52L225.87 311.16L230.12 311.16L233.10 321.27L236.20 311.16L240.46 311.16L240.46 334.52L237.67 334.52L237.67 323.48Q237.67 321.91 237.72 319.88Q237.77 317.85 237.87 315.77Q237.96 313.69 238.09 312.02L234.31 324.09L231.82 324.09L228.20 312.31Q228.46 314.68 228.55 317.50Q228.65 320.31 228.65 323.48" fill="white" fill-opacity="0.9"/>
<path d="M247.85 334.52L245.07 334.52L245.07 311.16L249.32 311.16L252.30 321.27L255.40 311.16L259.66 311.16L259.66 334.52L256.87 334.52L256.87 323.48Q256.87 321.91 256.92 319.88Q256.97 317.85 257.07 315.77Q257.16 313.69 257.29 312.02L253.51 324.09L251.02 324.09L247.40 312.31Q247.66 314.68 247.75 317.50Q247.85 320.31 247.85 323.48" fill="white" fill-opacity="0.9"/>
<path d="M271.56 334.84Q268.30 334.84 266.57 333.03Q264.84 331.22 264.84 328.12L264.84 311.16L267.72 311.16L267.72 328.12Q267.72 330.04 268.67 331.16Q269.61 332.28 271.56 332.28Q273.48 332.28 274.44 331.16Q275.40 330.04 275.40 328.12L275.40 311.16L278.28 311.16L278.28 328.12Q278.28 331.26 276.57 333.05Q274.86 334.84 271.56 334.84" fill="white" fill-opacity="0.9"/>
<path d="M286.83 334.52L284.04 334.52L284.04 311.16L287.88 311.16L295.02 331.16Q294.95 330.36 294.87 329.19Q294.79 328.02 294.75 326.73Q294.70 325.43 294.70 324.28L294.70 311.16L297.48 311.16L297.48 334.52L293.64 334.52L286.54 314.52Q286.60 315.29 286.67 316.46Q286.73 317.62 286.78 318.92Q286.83 320.22 286.83 321.40" fill="white" fill-opacity="0.9"/>
<path d="M316.20 334.52L303.72 334.52L303.72 331.90L308.49 331.90L308.49 313.78L303.72 313.78L303.72 311.16L316.20 311.16L316.20 313.78L311.43 313.78L311.43 331.90L316.20 331.90" fill="white" fill-opacity="0.9"/>
<path d="M330.60 334.52L327.72 334.52L327.72 313.78L321.32 313.78L321.32 311.16L337 311.16L337 313.78L330.60 313.78" fill="white" fill-opacity="0.9"/>
<path d="M349.80 334.52L346.92 334.52L346.92 325.78L339.88 311.16L342.95 311.16L347.50 320.76Q347.88 321.56 348.11 322.12Q348.33 322.68 348.39 322.94Q348.46 322.68 348.70 322.12Q348.94 321.56 349.32 320.76L353.87 311.16L356.84 311.16L349.80 325.78" fill="white" fill-opacity="0.9"/>
<path d="M382.83 334.52L380.04 334.52L380.04 311.16L383.88 311.16L391.02 331.16Q390.95 330.36 390.87 329.19Q390.79 328.02 390.75 326.73Q390.70 325.43 390.70 324.28L390.70 311.16L393.48 311.16L393.48 334.52L389.64 334.52L382.54 314.52Q382.60 315.29 382.67 316.46Q382.73 317.62 382.78 318.92Q382.83 320.22 382.83 321.40" fill="white" fill-opacity="0.9"/>
<path d="M405.96 334.84Q402.83 334.84 401 333.02Q399.18 331.19 399.18 327.80L399.18 317.88Q399.18 314.49 401 312.66Q402.83 310.84 405.96 310.84Q409.10 310.84 410.92 312.66Q412.75 314.49 412.75 317.85L412.75 327.80Q412.75 331.19 410.92 333.02Q409.10 334.84 405.96 334.84M405.96 332.25Q407.85 332.25 408.86 331.18Q409.87 330.10 409.87 328.12L409.87 317.56Q409.87 315.58 408.86 314.50Q407.85 313.43 405.96 313.43Q404.11 313.43 403.08 314.50Q402.06 315.58 402.06 317.56L402.06 328.12Q402.06 330.10 403.08 331.18Q404.11 332.25 405.96 332.25" fill="white" fill-opacity="0.9"/>
<path d="M424.55 334.52L418.51 334.52L418.51 311.16L424.55 311.16Q426.83 311.16 428.47 312.02Q430.12 312.89 431.03 314.46Q431.95 316.02 431.95 318.17L431.95 327.48Q431.95 329.62 431.03 331.21Q430.12 332.79 428.47 333.66Q426.83 334.52 424.55 334.52M421.39 313.72L421.39 331.96L424.55 331.96Q426.67 331.96 427.87 330.78Q429.07 329.59 429.07 327.48L429.07 318.17Q429.07 316.09 427.87 314.90Q426.67 313.72 424.55 313.72" fill="white" fill-opacity="0.9"/>
<path d="M451.40 334.52L437.96 334.52L437.96 311.16L451.40 311.16L451.40 313.78L440.81 313.78L440.81 321.02L450.28 321.02L450.28 323.58L440.81 323.58L440.81 331.90L451.40 331.90" fill="white" fill-opacity="0.9"/>
<path d="M463.69 334.84Q460.30 334.84 458.28 333.05Q456.27 331.26 456.27 328.12L459.15 328.12Q459.15 330.07 460.39 331.18Q461.64 332.28 463.69 332.28Q465.67 332.28 466.86 331.13Q468.04 329.98 468.04 328.12Q468.04 326.71 467.29 325.67Q466.54 324.63 465.13 324.25L461.58 323.26Q459.37 322.62 458.11 320.97Q456.84 319.32 456.84 317.08Q456.84 315.22 457.67 313.82Q458.51 312.41 460.01 311.62Q461.51 310.84 463.47 310.84Q465.45 310.84 466.97 311.62Q468.49 312.41 469.35 313.80Q470.22 315.19 470.22 317.02L467.34 317.02Q467.34 315.42 466.25 314.41Q465.16 313.40 463.47 313.40Q461.77 313.40 460.71 314.41Q459.66 315.42 459.66 317.02Q459.66 318.30 460.35 319.21Q461.03 320.12 462.28 320.47L465.93 321.50Q468.27 322.14 469.56 323.91Q470.86 325.69 470.86 328.12Q470.86 331.19 468.91 333.02Q466.95 334.84 463.69 334.84" fill="white" fill-opacity="0.9"/>
</g>
<path d="M82.48 197.64L72.40 197.64L72.40 180.12L82.48 180.12L82.48 182.09L74.54 182.09L74.54 187.51L81.64 187.51L81.64 189.43L74.54 189.43L74.54 195.67L82.48 195.67" fill="white" fill-opacity="0.7"/>
<path d="M91.14 197.64L86.61 197.64L86.61 180.12L91.14 180.12Q92.85 180.12 94.08 180.77Q95.32 181.42 96 182.59Q96.69 183.77 96.69 185.38L96.69 192.36Q96.69 193.97 96 195.16Q95.32 196.34 94.08 196.99Q92.85 197.64 91.14 197.64M88.77 182.04L88.77 195.72L91.14 195.72Q92.73 195.72 93.63 194.83Q94.53 193.94 94.53 192.36L94.53 185.38Q94.53 183.82 93.63 182.93Q92.73 182.04 91.14 182.04" fill="white" fill-opacity="0.7"/>
<path d="M112.12 197.64L100.84 197.64L100.84 195.67L105.52 195.67L105.52 186.41L101.32 186.41L101.32 184.44L107.68 184.44L107.68 195.67L112.12 195.67L112.12 197.64M106.36 182.06Q105.57 182.06 105.11 181.66Q104.66 181.25 104.66 180.55Q104.66 179.83 105.11 179.41Q105.57 178.99 106.36 178.99Q107.15 178.99 107.61 179.41Q108.06 179.83 108.06 180.55Q108.06 181.25 107.61 181.66Q107.15 182.06 106.36 182.06" fill="white" fill-opacity="0.7"/>
<path d="M120.93 197.83L119.87 197.83Q117.66 197.83 116.45 196.84Q115.24 195.84 115.24 194.02L117.40 194.02Q117.40 194.93 118.05 195.44Q118.70 195.96 119.87 195.96L120.93 195.96Q122.13 195.96 122.79 195.43Q123.45 194.90 123.45 193.94Q123.45 192.24 121.89 192.02L118.24 191.50Q116.90 191.30 116.15 190.38Q115.41 189.46 115.41 187.94Q115.41 186.22 116.60 185.23Q117.78 184.25 119.87 184.25L120.93 184.25Q122.85 184.25 124.06 185.20Q125.27 186.14 125.37 187.68L123.18 187.68Q123.14 186.98 122.52 186.53Q121.91 186.07 120.93 186.07L119.87 186.07Q118.77 186.07 118.14 186.58Q117.52 187.08 117.52 187.94Q117.52 189.34 118.79 189.53L122.20 190.01Q125.56 190.49 125.56 193.94Q125.56 195.79 124.35 196.81Q123.14 197.83 120.93 197.83" fill="white" fill-opacity="0.7"/>
<path d="M139.96 197.64L136.12 197.64Q134.49 197.64 133.50 196.69Q132.52 195.74 132.52 194.16L132.52 186.41L128.73 186.41L128.73 184.44L132.52 184.44L132.52 180.72L134.68 180.72L134.68 184.44L140.08 184.44L140.08 186.41L134.68 186.41L134.68 194.16Q134.68 194.83 135.08 195.25Q135.47 195.67 136.12 195.67L139.96 195.67" fill="white" fill-opacity="0.7"/>
<path d="M146.85 197.64L144.69 197.64L144.69 184.44L146.85 184.44L146.85 186.96L146.90 186.96Q147.06 185.69 147.98 184.94Q148.89 184.20 150.42 184.20Q152.49 184.20 153.60 185.44Q154.72 186.67 154.72 188.95L154.72 190.08L152.56 190.08L152.56 188.95Q152.56 186.07 149.75 186.07Q148.34 186.07 147.59 186.89Q146.85 187.70 146.85 189.24" fill="white" fill-opacity="0.7"/>
<path d="M169.72 197.64L158.44 197.64L158.44 195.67L163.12 195.67L163.12 186.41L158.92 186.41L158.92 184.44L165.28 184.44L165.28 195.67L169.72 195.67L169.72 197.64M163.96 182.06Q163.17 182.06 162.71 181.66Q162.26 181.25 162.26 180.55Q162.26 179.83 162.71 179.41Q163.17 178.99 163.96 178.99Q164.75 178.99 165.21 179.41Q165.66 179.83 165.66 180.55Q165.66 181.25 165.21 181.66Q164.75 182.06 163.96 182.06" fill="white" fill-opacity="0.7"/>
<path d="M178.19 197.88Q175.79 197.88 174.35 196.54Q172.91 195.19 172.91 192.84L172.91 189.24Q172.91 186.89 174.35 185.54Q175.79 184.20 178.19 184.20Q180.47 184.20 181.88 185.42Q183.28 186.65 183.35 188.76L181.19 188.76Q181.12 187.49 180.33 186.80Q179.54 186.12 178.19 186.12Q176.78 186.12 175.92 186.92Q175.07 187.73 175.07 189.22L175.07 192.84Q175.07 194.33 175.92 195.14Q176.78 195.96 178.19 195.96Q179.54 195.96 180.33 195.26Q181.12 194.57 181.19 193.32L183.35 193.32Q183.28 195.43 181.88 196.66Q180.47 197.88 178.19 197.88" fill="white" fill-opacity="0.7"/>
<path d="M197.56 197.64L193.72 197.64Q192.09 197.64 191.10 196.69Q190.12 195.74 190.12 194.16L190.12 186.41L186.33 186.41L186.33 184.44L190.12 184.44L190.12 180.72L192.28 180.72L192.28 184.44L197.68 184.44L197.68 186.41L192.28 186.41L192.28 194.16Q192.28 194.83 192.68 195.25Q193.07 195.67 193.72 195.67L197.56 195.67" fill="white" fill-opacity="0.7"/>
<path d="M221.20 197.88Q218.85 197.88 217.48 196.51Q216.11 195.14 216.11 192.60L216.11 185.16Q216.11 182.62 217.48 181.25Q218.85 179.88 221.20 179.88Q223.55 179.88 224.92 181.25Q226.29 182.62 226.29 185.14L226.29 192.60Q226.29 195.14 224.92 196.51Q223.55 197.88 221.20 197.88M221.20 195.94Q222.62 195.94 223.37 195.13Q224.13 194.33 224.13 192.84L224.13 184.92Q224.13 183.43 223.37 182.63Q222.62 181.82 221.20 181.82Q219.81 181.82 219.04 182.63Q218.27 183.43 218.27 184.92L218.27 192.84Q218.27 194.33 219.04 195.13Q219.81 195.94 221.20 195.94" fill="white" fill-opacity="0.7"/>
<path d="M234.83 197.88Q232.86 197.88 231.68 196.56Q230.49 195.24 230.49 192.98L230.49 189.12Q230.49 186.84 231.66 185.52Q232.84 184.20 234.83 184.20Q236.32 184.20 237.29 184.94Q238.26 185.69 238.46 186.96L238.48 186.96L238.43 183.96L238.43 180.12L240.59 180.12L240.59 197.64L238.43 197.64L238.43 195.12L238.41 195.12Q238.24 196.42 237.28 197.15Q236.32 197.88 234.83 197.88M235.55 196.01Q236.90 196.01 237.66 195.17Q238.43 194.33 238.43 192.84L238.43 189.24Q238.43 187.75 237.66 186.91Q236.90 186.07 235.55 186.07Q234.18 186.07 233.42 186.78Q232.65 187.49 232.65 189.12L232.65 192.96Q232.65 194.57 233.42 195.29Q234.18 196.01 235.55 196.01" fill="white" fill-opacity="0.7"/>
<path d="M256.12 197.64L244.84 197.64L244.84 195.67L249.52 195.67L249.52 186.41L245.32 186.41L245.32 184.44L251.68 184.44L251.68 195.67L256.12 195.67L256.12 197.64M250.36 182.06Q249.57 182.06 249.11 181.66Q248.66 181.25 248.66 180.55Q248.66 179.83 249.11 179.41Q249.57 178.99 250.36 178.99Q251.15 178.99 251.61 179.41Q252.06 179.83 252.06 180.55Q252.06 181.25 251.61 181.66Q251.15 182.06 250.36 182.06" fill="white" fill-opacity="0.7"/>
<path d="M264.93 197.83L263.87 197.83Q261.66 197.83 260.45 196.84Q259.24 195.84 259.24 194.02L261.40 194.02Q261.40 194.93 262.05 195.44Q262.70 195.96 263.87 195.96L264.93 195.96Q266.13 195.96 266.79 195.43Q267.45 194.90 267.45 193.94Q267.45 192.24 265.89 192.02L262.24 191.50Q260.90 191.30 260.15 190.38Q259.41 189.46 259.41 187.94Q259.41 186.22 260.60 185.23Q261.78 184.25 263.87 184.25L264.93 184.25Q266.85 184.25 268.06 185.20Q269.27 186.14 269.37 187.68L267.18 187.68Q267.14 186.98 266.52 186.53Q265.91 186.07 264.93 186.07L263.87 186.07Q262.77 186.07 262.14 186.58Q261.52 187.08 261.52 187.94Q261.52 189.34 262.79 189.53L266.20 190.01Q269.56 190.49 269.56 193.94Q269.56 195.79 268.35 196.81Q267.14 197.83 264.93 197.83" fill="white" fill-opacity="0.7"/>
<path d="M275.97 197.64L273.81 197.64L273.81 180.12L275.97 180.12L275.97 186.96L275.99 186.96Q276.16 185.64 277.07 184.92Q277.98 184.20 279.50 184.20Q281.49 184.20 282.66 185.42Q283.84 186.65 283.84 188.76L283.84 197.64L281.68 197.64L281.68 189.12Q281.68 187.63 280.92 186.83Q280.17 186.02 278.87 186.02Q277.53 186.02 276.75 186.86Q275.97 187.70 275.97 189.24" fill="white" fill-opacity="0.7"/>
<path d="M292.05 197.88Q290.01 197.88 288.81 196.74Q287.61 195.60 287.61 193.75Q287.61 192.53 288.16 191.62Q288.71 190.70 289.70 190.19Q290.68 189.67 291.95 189.67L296.03 189.67L296.03 188.64Q296.03 186.07 293.22 186.07Q291.98 186.07 291.21 186.53Q290.44 186.98 290.39 187.80L288.23 187.80Q288.35 186.24 289.68 185.22Q291.02 184.20 293.22 184.20Q295.62 184.20 296.91 185.35Q298.19 186.50 298.19 188.57L298.19 197.64L296.06 197.64L296.06 195.24L296.01 195.24Q295.82 196.46 294.78 197.17Q293.75 197.88 292.05 197.88M292.58 196.06Q294.16 196.06 295.10 195.29Q296.03 194.52 296.03 193.20L296.03 191.35L292.19 191.35Q291.14 191.35 290.48 191.99Q289.82 192.62 289.82 193.68Q289.82 194.78 290.55 195.42Q291.28 196.06 292.58 196.06" fill="white" fill-opacity="0.7"/>
<path d="M319.17 201.96L317.01 201.96L317.01 184.44L319.17 184.44L319.17 186.96L319.19 186.96Q319.36 185.66 320.32 184.93Q321.28 184.20 322.77 184.20Q324.76 184.20 325.94 185.51Q327.11 186.82 327.11 189.10L327.11 192.96Q327.11 195.24 325.94 196.56Q324.76 197.88 322.77 197.88Q321.28 197.88 320.32 197.14Q319.36 196.39 319.19 195.12L319.12 195.12L319.17 198.12L319.17 201.96M322.05 196.01Q323.42 196.01 324.18 195.29Q324.95 194.57 324.95 192.96L324.95 189.12Q324.95 187.49 324.18 186.78Q323.42 186.07 322.05 186.07Q320.73 186.07 319.95 186.91Q319.17 187.75 319.17 189.24L319.17 192.84Q319.17 194.33 319.95 195.17Q320.73 196.01 322.05 196.01" fill="white" fill-opacity="0.7"/>
<path d="M336.40 197.83Q334.02 197.83 332.62 196.44Q331.22 195.05 331.22 192.55L331.22 189.53Q331.22 187.01 332.61 185.63Q334 184.25 336.40 184.25Q338.80 184.25 340.19 185.63Q341.58 187.01 341.58 189.53L341.58 192.55Q341.58 195.05 340.18 196.44Q338.78 197.83 336.40 197.83M336.40 195.91Q337.82 195.91 338.62 195.12Q339.42 194.33 339.42 192.79L339.42 189.29Q339.42 187.75 338.62 186.96Q337.82 186.17 336.40 186.17Q335.01 186.17 334.19 186.96Q333.38 187.75 333.38 189.29L333.38 192.79Q333.38 194.33 334.19 195.12Q335.01 195.91 336.40 195.91" fill="white" fill-opacity="0.7"/>
<path d="M348.45 197.64L346.29 197.64L346.29 184.44L348.45 184.44L348.45 186.96L348.50 186.96Q348.66 185.69 349.58 184.94Q350.49 184.20 352.02 184.20Q354.09 184.20 355.20 185.44Q356.32 186.67 356.32 188.95L356.32 190.08L354.16 190.08L354.16 188.95Q354.16 186.07 351.35 186.07Q349.94 186.07 349.19 186.89Q348.45 187.70 348.45 189.24" fill="white" fill-opacity="0.7"/>
<path d="M370.36 197.64L366.52 197.64Q364.89 197.64 363.90 196.69Q362.92 195.74 362.92 194.16L362.92 186.41L359.13 186.41L359.13 184.44L362.92 184.44L362.92 180.72L365.08 180.72L365.08 184.44L370.48 184.44L370.48 186.41L365.08 186.41L365.08 194.16Q365.08 194.83 365.48 195.25Q365.87 195.67 366.52 195.67L370.36 195.67" fill="white" fill-opacity="0.7"/>
<path d="M378.45 197.88Q376.41 197.88 375.21 196.74Q374.01 195.60 374.01 193.75Q374.01 192.53 374.56 191.62Q375.11 190.70 376.10 190.19Q377.08 189.67 378.35 189.67L382.43 189.67L382.43 188.64Q382.43 186.07 379.62 186.07Q378.38 186.07 377.61 186.53Q376.84 186.98 376.79 187.80L374.63 187.80Q374.75 186.24 376.08 185.22Q377.42 184.20 379.62 184.20Q382.02 184.20 383.31 185.35Q384.59 186.50 384.59 188.57L384.59 197.64L382.46 197.64L382.46 195.24L382.41 195.24Q382.22 196.46 381.18 197.17Q380.15 197.88 378.45 197.88M378.98 196.06Q380.56 196.06 381.50 195.29Q382.43 194.52 382.43 193.20L382.43 191.35L378.59 191.35Q377.54 191.35 376.88 191.99Q376.22 192.62 376.22 193.68Q376.22 194.78 376.95 195.42Q377.68 196.06 378.98 196.06" fill="white" fill-opacity="0.7"/>
<path d="M400 197.64L395.92 197.64Q394.17 197.64 393.12 196.62Q392.08 195.60 392.08 193.92L392.08 182.09L387.52 182.09L387.52 180.12L394.24 180.12L394.24 193.92Q394.24 194.74 394.70 195.20Q395.15 195.67 395.92 195.67L400 195.67" fill="white" fill-opacity="0.7"/>
<path d="M428.92 197.64L417.64 197.64L417.64 195.67L422.32 195.67L422.32 186.41L418.12 186.41L418.12 184.44L424.48 184.44L424.48 195.67L428.92 195.67L428.92 197.64M423.16 182.06Q422.37 182.06 421.91 181.66Q421.46 181.25 421.46 180.55Q421.46 179.83 421.91 179.41Q422.37 178.99 423.16 178.99Q423.95 178.99 424.41 179.41Q424.86 179.83 424.86 180.55Q424.86 181.25 424.41 181.66Q423.95 182.06 423.16 182.06" fill="white" fill-opacity="0.7"/>
<path d="M437.73 197.83L436.67 197.83Q434.46 197.83 433.25 196.84Q432.04 195.84 432.04 194.02L434.20 194.02Q434.20 194.93 434.85 195.44Q435.50 195.96 436.67 195.96L437.73 195.96Q438.93 195.96 439.59 195.43Q440.25 194.90 440.25 193.94Q440.25 192.24 438.69 192.02L435.04 191.50Q433.70 191.30 432.95 190.38Q432.21 189.46 432.21 187.94Q432.21 186.22 433.40 185.23Q434.58 184.25 436.67 184.25L437.73 184.25Q439.65 184.25 440.86 185.20Q442.07 186.14 442.17 187.68L439.98 187.68Q439.94 186.98 439.32 186.53Q438.71 186.07 437.73 186.07L436.67 186.07Q435.57 186.07 434.94 186.58Q434.32 187.08 434.32 187.94Q434.32 189.34 435.59 189.53L439 190.01Q442.36 190.49 442.36 193.94Q442.36 195.79 441.15 196.81Q439.94 197.83 437.73 197.83" fill="white" fill-opacity="0.7"/>
<path d="M452.13 197.83L451.07 197.83Q448.86 197.83 447.65 196.84Q446.44 195.84 446.44 194.02L448.60 194.02Q448.60 194.93 449.25 195.44Q449.90 195.96 451.07 195.96L452.13 195.96Q453.33 195.96 453.99 195.43Q454.65 194.90 454.65 193.94Q454.65 192.24 453.09 192.02L449.44 191.50Q448.10 191.30 447.35 190.38Q446.61 189.46 446.61 187.94Q446.61 186.22 447.80 185.23Q448.98 184.25 451.07 184.25L452.13 184.25Q454.05 184.25 455.26 185.20Q456.47 186.14 456.57 187.68L454.38 187.68Q454.34 186.98 453.72 186.53Q453.11 186.07 452.13 186.07L451.07 186.07Q449.97 186.07 449.34 186.58Q448.72 187.08 448.72 187.94Q448.72 189.34 449.99 189.53L453.40 190.01Q456.76 190.49 456.76 193.94Q456.76 195.79 455.55 196.81Q454.34 197.83 452.13 197.83" fill="white" fill-opacity="0.7"/>
<path d="M465.98 197.88Q463.70 197.88 462.33 196.52Q460.96 195.17 460.96 192.84L460.96 184.44L463.12 184.44L463.12 192.84Q463.12 194.28 463.89 195.13Q464.66 195.98 465.98 195.98Q467.32 195.98 468.10 195.13Q468.88 194.28 468.88 192.84L468.88 184.44L471.04 184.44L471.04 192.84Q471.04 195.17 469.65 196.52Q468.26 197.88 465.98 197.88" fill="white" fill-opacity="0.7"/>
<path d="M480.40 197.88Q478.07 197.88 476.64 196.48Q475.22 195.07 475.22 192.60L475.22 189.48Q475.22 187.01 476.64 185.60Q478.07 184.20 480.40 184.20Q481.96 184.20 483.12 184.82Q484.29 185.45 484.94 186.58Q485.58 187.70 485.58 189.24L485.58 191.59L477.33 191.59L477.33 192.84Q477.33 194.30 478.17 195.16Q479.01 196.01 480.40 196.01Q481.60 196.01 482.38 195.54Q483.16 195.07 483.33 194.28L485.49 194.28Q485.27 195.94 483.88 196.91Q482.49 197.88 480.40 197.88M477.33 189.24L477.33 189.91L483.47 189.91L483.47 189.24Q483.47 187.68 482.67 186.83Q481.86 185.98 480.40 185.98Q478.94 185.98 478.13 186.83Q477.33 187.68 477.33 189.24" fill="white" fill-opacity="0.7"/>
<path d="M495.33 197.83L494.27 197.83Q492.06 197.83 490.85 196.84Q489.64 195.84 489.64 194.02L491.80 194.02Q491.80 194.93 492.45 195.44Q493.10 195.96 494.27 195.96L495.33 195.96Q496.53 195.96 497.19 195.43Q497.85 194.90 497.85 193.94Q497.85 192.24 496.29 192.02L492.64 191.50Q491.30 191.30 490.55 190.38Q489.81 189.46 489.81 187.94Q489.81 186.22 491 185.23Q492.18 184.25 494.27 184.25L495.33 184.25Q497.25 184.25 498.46 185.20Q499.67 186.14 499.77 187.68L497.58 187.68Q497.54 186.98 496.92 186.53Q496.31 186.07 495.33 186.07L494.27 186.07Q493.17 186.07 492.54 186.58Q491.92 187.08 491.92 187.94Q491.92 189.34 493.19 189.53L496.60 190.01Q499.96 190.49 499.96 193.94Q499.96 195.79 498.75 196.81Q497.54 197.83 495.33 197.83" fill="white" fill-opacity="0.7"/>
<path d="M528.28 197.64L518.92 197.64L518.92 195.67L522.50 195.67L522.50 182.09L518.92 182.09L518.92 180.12L528.28 180.12L528.28 182.09L524.70 182.09L524.70 195.67L528.28 195.67" fill="white" fill-opacity="0.7"/>
<path d="M535.17 197.64L533.01 197.64L533.01 184.44L535.17 184.44L535.17 186.96L535.19 186.96Q535.36 185.64 536.27 184.92Q537.18 184.20 538.70 184.20Q540.69 184.20 541.86 185.42Q543.04 186.65 543.04 188.76L543.04 197.64L540.88 197.64L540.88 189.14Q540.88 187.63 540.12 186.83Q539.37 186.02 538.07 186.02Q536.73 186.02 535.95 186.86Q535.17 187.70 535.17 189.24" fill="white" fill-opacity="0.7"/>
<path d="M552.59 197.88Q550.19 197.88 548.75 196.54Q547.31 195.19 547.31 192.84L547.31 189.24Q547.31 186.89 548.75 185.54Q550.19 184.20 552.59 184.20Q554.87 184.20 556.28 185.42Q557.68 186.65 557.75 188.76L555.59 188.76Q555.52 187.49 554.73 186.80Q553.94 186.12 552.59 186.12Q551.18 186.12 550.32 186.92Q549.47 187.73 549.47 189.22L549.47 192.84Q549.47 194.33 550.32 195.14Q551.18 195.96 552.59 195.96Q553.94 195.96 554.73 195.26Q555.52 194.57 555.59 193.32L557.75 193.32Q557.68 195.43 556.28 196.66Q554.87 197.88 552.59 197.88" fill="white" fill-opacity="0.7"/>
<path d="M566.80 197.83Q564.42 197.83 563.02 196.44Q561.62 195.05 561.62 192.55L561.62 189.53Q561.62 187.01 563.01 185.63Q564.40 184.25 566.80 184.25Q569.20 184.25 570.59 185.63Q571.98 187.01 571.98 189.53L571.98 192.55Q571.98 195.05 570.58 196.44Q569.18 197.83 566.80 197.83M566.80 195.91Q568.22 195.91 569.02 195.12Q569.82 194.33 569.82 192.79L569.82 189.29Q569.82 187.75 569.02 186.96Q568.22 186.17 566.80 186.17Q565.41 186.17 564.59 186.96Q563.78 187.75 563.78 189.29L563.78 192.79Q563.78 194.33 564.59 195.12Q565.41 195.91 566.80 195.91" fill="white" fill-opacity="0.7"/>
<path d="M577.46 197.64L575.44 197.64L575.44 184.44L577.31 184.44L577.31 186.19L577.36 186.19Q577.48 185.30 578.07 184.75Q578.66 184.20 579.57 184.20Q580.43 184.20 581.03 184.70Q581.63 185.21 581.90 186.07L581.92 186.07Q582.09 185.21 582.68 184.70Q583.26 184.20 584.18 184.20Q585.45 184.20 586.20 185.15Q586.96 186.10 586.96 187.61L586.96 197.64L584.94 197.64L584.94 187.58Q584.94 186.79 584.56 186.32Q584.18 185.86 583.50 185.86Q582.86 185.86 582.47 186.31Q582.09 186.77 582.09 187.56L582.09 197.64L580.31 197.64L580.31 187.58Q580.31 186.79 579.93 186.32Q579.54 185.86 578.90 185.86Q578.22 185.86 577.84 186.31Q577.46 186.77 577.46 187.56" fill="white" fill-opacity="0.7"/>
<path d="M595.60 197.88Q593.27 197.88 591.84 196.48Q590.42 195.07 590.42 192.60L590.42 189.48Q590.42 187.01 591.84 185.60Q593.27 184.20 595.60 184.20Q597.16 184.20 598.32 184.82Q599.49 185.45 600.14 186.58Q600.78 187.70 600.78 189.24L600.78 191.59L592.53 191.59L592.53 192.84Q592.53 194.30 593.37 195.16Q594.21 196.01 595.60 196.01Q596.80 196.01 597.58 195.54Q598.36 195.07 598.53 194.28L600.69 194.28Q600.47 195.94 599.08 196.91Q597.69 197.88 595.60 197.88M592.53 189.24L592.53 189.91L598.67 189.91L598.67 189.24Q598.67 187.68 597.87 186.83Q597.06 185.98 595.60 185.98Q594.14 185.98 593.33 186.83Q592.53 187.68 592.53 189.24" fill="white" fill-opacity="0.7"/>
<path d="M610.07 201.48L607.84 201.48L609.16 194.14L611.75 194.14" fill="white" fill-opacity="0.7"/>
<path d="M638.99 197.88Q636.59 197.88 635.20 196.54Q633.81 195.19 633.81 192.84L633.81 184.92Q633.81 182.57 635.20 181.22Q636.59 179.88 638.99 179.88Q641.34 179.88 642.74 181.24Q644.13 182.59 644.13 184.92L641.97 184.92Q641.97 183.43 641.19 182.63Q640.41 181.82 638.99 181.82Q637.58 181.82 636.77 182.63Q635.97 183.43 635.97 184.92L635.97 192.84Q635.97 194.33 636.77 195.13Q637.58 195.94 638.99 195.94Q640.41 195.94 641.19 195.13Q641.97 194.33 641.97 192.84L644.13 192.84Q644.13 195.17 642.74 196.52Q641.34 197.88 638.99 197.88" fill="white" fill-opacity="0.7"/>
<path d="M652.05 197.88Q650.01 197.88 648.81 196.74Q647.61 195.60 647.61 193.75Q647.61 192.53 648.16 191.62Q648.71 190.70 649.70 190.19Q650.68 189.67 651.95 189.67L656.03 189.67L656.03 188.64Q656.03 186.07 653.22 186.07Q651.98 186.07 651.21 186.53Q650.44 186.98 650.39 187.80L648.23 187.80Q648.35 186.24 649.68 185.22Q651.02 184.20 653.22 184.20Q655.62 184.20 656.91 185.35Q658.19 186.50 658.19 188.57L658.19 197.64L656.06 197.64L656.06 195.24L656.01 195.24Q655.82 196.46 654.78 197.17Q653.75 197.88 652.05 197.88M652.58 196.06Q654.16 196.06 655.10 195.29Q656.03 194.52 656.03 193.20L656.03 191.35L652.19 191.35Q651.14 191.35 650.48 191.99Q649.82 192.62 649.82 193.68Q649.82 194.78 650.55 195.42Q651.28 196.06 652.58 196.06" fill="white" fill-opacity="0.7"/>
<path d="M668.13 197.83L667.07 197.83Q664.86 197.83 663.65 196.84Q662.44 195.84 662.44 194.02L664.60 194.02Q664.60 194.93 665.25 195.44Q665.90 195.96 667.07 195.96L668.13 195.96Q669.33 195.96 669.99 195.43Q670.65 194.90 670.65 193.94Q670.65 192.24 669.09 192.02L665.44 191.50Q664.10 191.30 663.35 190.38Q662.61 189.46 662.61 187.94Q662.61 186.22 663.80 185.23Q664.98 184.25 667.07 184.25L668.13 184.25Q670.05 184.25 671.26 185.20Q672.47 186.14 672.57 187.68L670.38 187.68Q670.34 186.98 669.72 186.53Q669.11 186.07 668.13 186.07L667.07 186.07Q665.97 186.07 665.34 186.58Q664.72 187.08 664.72 187.94Q664.72 189.34 665.99 189.53L669.40 190.01Q672.76 190.49 672.76 193.94Q672.76 195.79 671.55 196.81Q670.34 197.83 668.13 197.83" fill="white" fill-opacity="0.7"/>
<path d="M687.16 197.64L683.32 197.64Q681.69 197.64 680.70 196.69Q679.72 195.74 679.72 194.16L679.72 186.41L675.93 186.41L675.93 184.44L679.72 184.44L679.72 180.72L681.88 180.72L681.88 184.44L687.28 184.44L687.28 186.41L681.88 186.41L681.88 194.16Q681.88 194.83 682.28 195.25Q682.67 195.67 683.32 195.67L687.16 195.67" fill="white" fill-opacity="0.7"/>
<path d="M696.40 197.88Q694.07 197.88 692.64 196.48Q691.22 195.07 691.22 192.60L691.22 189.48Q691.22 187.01 692.64 185.60Q694.07 184.20 696.40 184.20Q697.96 184.20 699.12 184.82Q700.29 185.45 700.94 186.58Q701.58 187.70 701.58 189.24L701.58 191.59L693.33 191.59L693.33 192.84Q693.33 194.30 694.17 195.16Q695.01 196.01 696.40 196.01Q697.60 196.01 698.38 195.54Q699.16 195.07 699.33 194.28L701.49 194.28Q701.27 195.94 699.88 196.91Q698.49 197.88 696.40 197.88M693.33 189.24L693.33 189.91L699.47 189.91L699.47 189.24Q699.47 187.68 698.67 186.83Q697.86 185.98 696.40 185.98Q694.94 185.98 694.13 186.83Q693.33 187.68 693.33 189.24" fill="white" fill-opacity="0.7"/>
<path d="M710.87 201.48L708.64 201.48L709.96 194.14L712.55 194.14" fill="white" fill-opacity="0.7"/>
<path d="M736.77 197.64L734.63 197.64L734.63 180.12L740.03 180.12Q741.59 180.12 742.77 180.76Q743.94 181.39 744.59 182.52Q745.24 183.65 745.24 185.16Q745.24 186.94 744.33 188.21Q743.42 189.48 741.90 189.98L745.48 197.64L743.10 197.64L739.67 190.20L736.77 190.20L736.77 197.64M736.77 182.06L736.77 188.26L740.03 188.26Q741.38 188.26 742.19 187.40Q743.01 186.55 743.01 185.16Q743.01 183.74 742.19 182.90Q741.38 182.06 740.03 182.06" fill="white" fill-opacity="0.7"/>
<path d="M754 197.88Q751.67 197.88 750.24 196.48Q748.82 195.07 748.82 192.60L748.82 189.48Q748.82 187.01 750.24 185.60Q751.67 184.20 754 184.20Q755.56 184.20 756.72 184.82Q757.89 185.45 758.54 186.58Q759.18 187.70 759.18 189.24L759.18 191.59L750.93 191.59L750.93 192.84Q750.93 194.30 751.77 195.16Q752.61 196.01 754 196.01Q755.20 196.01 755.98 195.54Q756.76 195.07 756.93 194.28L759.09 194.28Q758.87 195.94 757.48 196.91Q756.09 197.88 754 197.88M750.93 189.24L750.93 189.91L757.07 189.91L757.07 189.24Q757.07 187.68 756.27 186.83Q755.46 185.98 754 185.98Q752.54 185.98 751.73 186.83Q750.93 187.68 750.93 189.24" fill="white" fill-opacity="0.7"/>
<path d="M768.93 197.83L767.87 197.83Q765.66 197.83 764.45 196.84Q763.24 195.84 763.24 194.02L765.40 194.02Q765.40 194.93 766.05 195.44Q766.70 195.96 767.87 195.96L768.93 195.96Q770.13 195.96 770.79 195.43Q771.45 194.90 771.45 193.94Q771.45 192.24 769.89 192.02L766.24 191.50Q764.90 191.30 764.15 190.38Q763.41 189.46 763.41 187.94Q763.41 186.22 764.60 185.23Q765.78 184.25 767.87 184.25L768.93 184.25Q770.85 184.25 772.06 185.20Q773.27 186.14 773.37 187.68L771.18 187.68Q771.14 186.98 770.52 186.53Q769.91 186.07 768.93 186.07L767.87 186.07Q766.77 186.07 766.14 186.58Q765.52 187.08 765.52 187.94Q765.52 189.34 766.79 189.53L770.20 190.01Q773.56 190.49 773.56 193.94Q773.56 195.79 772.35 196.81Q771.14 197.83 768.93 197.83" fill="white" fill-opacity="0.7"/>
<path d="M788.92 197.64L777.64 197.64L777.64 195.67L782.32 195.67L782.32 186.41L778.12 186.41L778.12 184.44L784.48 184.44L784.48 195.67L788.92 195.67L788.92 197.64M783.16 182.06Q782.37 182.06 781.91 181.66Q781.46 181.25 781.46 180.55Q781.46 179.83 781.91 179.41Q782.37 178.99 783.16 178.99Q783.95 178.99 784.41 179.41Q784.86 179.83 784.86 180.55Q784.86 181.25 784.41 181.66Q783.95 182.06 783.16 182.06" fill="white" fill-opacity="0.7"/>
<path d="M796.43 197.88Q794.46 197.88 793.28 196.56Q792.09 195.24 792.09 192.98L792.09 189.12Q792.09 186.84 793.26 185.52Q794.44 184.20 796.43 184.20Q797.92 184.20 798.89 184.94Q799.86 185.69 800.06 186.96L800.08 186.96L800.03 183.96L800.03 180.12L802.19 180.12L802.19 197.64L800.03 197.64L800.03 195.12L800.01 195.12Q799.84 196.42 798.88 197.15Q797.92 197.88 796.43 197.88M797.15 196.01Q798.50 196.01 799.26 195.17Q800.03 194.33 800.03 192.84L800.03 189.24Q800.03 187.75 799.26 186.91Q798.50 186.07 797.15 186.07Q795.78 186.07 795.02 186.78Q794.25 187.49 794.25 189.12L794.25 192.96Q794.25 194.57 795.02 195.29Q795.78 196.01 797.15 196.01" fill="white" fill-opacity="0.7"/>
<path d="M811.60 197.88Q809.27 197.88 807.84 196.48Q806.42 195.07 806.42 192.60L806.42 189.48Q806.42 187.01 807.84 185.60Q809.27 184.20 811.60 184.20Q813.16 184.20 814.32 184.82Q815.49 185.45 816.14 186.58Q816.78 187.70 816.78 189.24L816.78 191.59L808.53 191.59L808.53 192.84Q808.53 194.30 809.37 195.16Q810.21 196.01 811.60 196.01Q812.80 196.01 813.58 195.54Q814.36 195.07 814.53 194.28L816.69 194.28Q816.47 195.94 815.08 196.91Q813.69 197.88 811.60 197.88M808.53 189.24L808.53 189.91L814.67 189.91L814.67 189.24Q814.67 187.68 813.87 186.83Q813.06 185.98 811.60 185.98Q810.14 185.98 809.33 186.83Q808.53 187.68 808.53 189.24" fill="white" fill-opacity="0.7"/>
<path d="M823.17 197.64L821.01 197.64L821.01 184.44L823.17 184.44L823.17 186.96L823.19 186.96Q823.36 185.64 824.27 184.92Q825.18 184.20 826.70 184.20Q828.69 184.20 829.86 185.42Q831.04 186.65 831.04 188.76L831.04 197.64L828.88 197.64L828.88 189.14Q828.88 187.63 828.12 186.83Q827.37 186.02 826.07 186.02Q824.73 186.02 823.95 186.86Q823.17 187.70 823.17 189.24" fill="white" fill-opacity="0.7"/>
<path d="M840.59 197.88Q838.19 197.88 836.75 196.54Q835.31 195.19 835.31 192.84L835.31 189.24Q835.31 186.89 836.75 185.54Q838.19 184.20 840.59 184.20Q842.87 184.20 844.28 185.42Q845.68 186.65 845.75 188.76L843.59 188.76Q843.52 187.49 842.73 186.80Q841.94 186.12 840.59 186.12Q839.18 186.12 838.32 186.92Q837.47 187.73 837.47 189.22L837.47 192.84Q837.47 194.33 838.32 195.14Q839.18 195.96 840.59 195.96Q841.94 195.96 842.73 195.26Q843.52 194.57 843.59 193.32L845.75 193.32Q845.68 195.43 844.28 196.66Q842.87 197.88 840.59 197.88" fill="white" fill-opacity="0.7"/>
<path d="M854.80 197.88Q852.47 197.88 851.04 196.48Q849.62 195.07 849.62 192.60L849.62 189.48Q849.62 187.01 851.04 185.60Q852.47 184.20 854.80 184.20Q856.36 184.20 857.52 184.82Q858.69 185.45 859.34 186.58Q859.98 187.70 859.98 189.24L859.98 191.59L851.73 191.59L851.73 192.84Q851.73 194.30 852.57 195.16Q853.41 196.01 854.80 196.01Q856 196.01 856.78 195.54Q857.56 195.07 857.73 194.28L859.89 194.28Q859.67 195.94 858.28 196.91Q856.89 197.88 854.80 197.88M851.73 189.24L851.73 189.91L857.87 189.91L857.87 189.24Q857.87 187.68 857.07 186.83Q856.26 185.98 854.80 185.98Q853.34 185.98 852.53 186.83Q851.73 187.68 851.73 189.24" fill="white" fill-opacity="0.7"/>
<path d="M883.79 197.88Q881.39 197.88 880 196.54Q878.61 195.19 878.61 192.84L878.61 184.92Q878.61 182.57 880 181.22Q881.39 179.88 883.79 179.88Q886.14 179.88 887.54 181.24Q888.93 182.59 888.93 184.92L886.77 184.92Q886.77 183.43 885.99 182.63Q885.21 181.82 883.79 181.82Q882.38 181.82 881.57 182.63Q880.77 183.43 880.77 184.92L880.77 192.84Q880.77 194.33 881.57 195.13Q882.38 195.94 883.79 195.94Q885.21 195.94 885.99 195.13Q886.77 194.33 886.77 192.84L888.93 192.84Q888.93 195.17 887.54 196.52Q886.14 197.88 883.79 197.88" fill="white" fill-opacity="0.7"/>
<path d="M898 197.88Q895.67 197.88 894.24 196.48Q892.82 195.07 892.82 192.60L892.82 189.48Q892.82 187.01 894.24 185.60Q895.67 184.20 898 184.20Q899.56 184.20 900.72 184.82Q901.89 185.45 902.54 186.58Q903.18 187.70 903.18 189.24L903.18 191.59L894.93 191.59L894.93 192.84Q894.93 194.30 895.77 195.16Q896.61 196.01 898 196.01Q899.20 196.01 899.98 195.54Q900.76 195.07 900.93 194.28L903.09 194.28Q902.87 195.94 901.48 196.91Q900.09 197.88 898 197.88M894.93 189.24L894.93 189.91L901.07 189.91L901.07 189.24Q901.07 187.68 900.27 186.83Q899.46 185.98 898 185.98Q896.54 185.98 895.73 186.83Q894.93 187.68 894.93 189.24" fill="white" fill-opacity="0.7"/>
<path d="M910.05 197.64L907.89 197.64L907.89 184.44L910.05 184.44L910.05 186.96L910.10 186.96Q910.26 185.69 911.18 184.94Q912.09 184.20 913.62 184.20Q915.69 184.20 916.80 185.44Q917.92 186.67 917.92 188.95L917.92 190.08L915.76 190.08L915.76 188.95Q915.76 186.07 912.95 186.07Q911.54 186.07 910.79 186.89Q910.05 187.70 910.05 189.24" fill="white" fill-opacity="0.7"/>
<path d="M931.96 197.64L928.12 197.64Q926.49 197.64 925.50 196.69Q924.52 195.74 924.52 194.16L924.52 186.41L920.73 186.41L920.73 184.44L924.52 184.44L924.52 180.72L926.68 180.72L926.68 184.44L932.08 184.44L932.08 186.41L926.68 186.41L926.68 194.16Q926.68 194.83 927.08 195.25Q927.47 195.67 928.12 195.67L931.96 195.67" fill="white" fill-opacity="0.7"/>
<path d="M947.32 197.64L936.04 197.64L936.04 195.67L940.72 195.67L940.72 186.41L936.52 186.41L936.52 184.44L942.88 184.44L942.88 195.67L947.32 195.67L947.32 197.64M941.56 182.06Q940.77 182.06 940.31 181.66Q939.86 181.25 939.86 180.55Q939.86 179.83 940.31 179.41Q940.77 178.99 941.56 178.99Q942.35 178.99 942.81 179.41Q943.26 179.83 943.26 180.55Q943.26 181.25 942.81 181.66Q942.35 182.06 941.56 182.06" fill="white" fill-opacity="0.7"/>
<path d="M955.72 197.64L953.56 197.64L953.56 188.21L949.72 188.21L949.72 186.24L953.56 186.24L953.56 183.48Q953.56 181.92 954.54 181.02Q955.53 180.12 957.26 180.12L961.12 180.12L961.12 182.09L957.26 182.09Q955.72 182.09 955.72 183.48L955.72 186.24L961.12 186.24L961.12 188.21L955.72 188.21" fill="white" fill-opacity="0.7"/>
<path d="M976.12 197.64L964.84 197.64L964.84 195.67L969.52 195.67L969.52 186.41L965.32 186.41L965.32 184.44L971.68 184.44L971.68 195.67L976.12 195.67L976.12 197.64M970.36 182.06Q969.57 182.06 969.11 181.66Q968.66 181.25 968.66 180.55Q968.66 179.83 969.11 179.41Q969.57 178.99 970.36 178.99Q971.15 178.99 971.61 179.41Q972.06 179.83 972.06 180.55Q972.06 181.25 971.61 181.66Q971.15 182.06 970.36 182.06" fill="white" fill-opacity="0.7"/>
<path d="M984.59 197.88Q982.19 197.88 980.75 196.54Q979.31 195.19 979.31 192.84L979.31 189.24Q979.31 186.89 980.75 185.54Q982.19 184.20 984.59 184.20Q986.87 184.20 988.28 185.42Q989.68 186.65 989.75 188.76L987.59 188.76Q987.52 187.49 986.73 186.80Q985.94 186.12 984.59 186.12Q983.18 186.12 982.32 186.92Q981.47 187.73 981.47 189.22L981.47 192.84Q981.47 194.33 982.32 195.14Q983.18 195.96 984.59 195.96Q985.94 195.96 986.73 195.26Q987.52 194.57 987.59 193.32L989.75 193.32Q989.68 195.43 988.28 196.66Q986.87 197.88 984.59 197.88" fill="white" fill-opacity="0.7"/>
<path d="M997.65 197.88Q995.61 197.88 994.41 196.74Q993.21 195.60 993.21 193.75Q993.21 192.53 993.76 191.62Q994.31 190.70 995.30 190.19Q996.28 189.67 997.55 189.67L1001.63 189.67L1001.63 188.64Q1001.63 186.07 998.82 186.07Q997.58 186.07 996.81 186.53Q996.04 186.98 995.99 187.80L993.83 187.80Q993.95 186.24 995.28 185.22Q996.62 184.20 998.82 184.20Q1001.22 184.20 1002.51 185.35Q1003.79 186.50 1003.79 188.57L1003.79 197.64L1001.66 197.64L1001.66 195.24L1001.61 195.24Q1001.42 196.46 1000.38 197.17Q999.35 197.88 997.65 197.88M998.18 196.06Q999.76 196.06 1000.70 195.29Q1001.63 194.52 1001.63 193.20L1001.63 191.35L997.79 191.35Q996.74 191.35 996.08 191.99Q995.42 192.62 995.42 193.68Q995.42 194.78 996.15 195.42Q996.88 196.06 998.18 196.06" fill="white" fill-opacity="0.7"/>
<path d="M1018.36 197.64L1014.52 197.64Q1012.89 197.64 1011.90 196.69Q1010.92 195.74 1010.92 194.16L1010.92 186.41L1007.13 186.41L1007.13 184.44L1010.92 184.44L1010.92 180.72L1013.08 180.72L1013.08 184.44L1018.48 184.44L1018.48 186.41L1013.08 186.41L1013.08 194.16Q1013.08 194.83 1013.48 195.25Q1013.87 195.67 1014.52 195.67L1018.36 195.67" fill="white" fill-opacity="0.7"/>
<path d="M1027.60 197.88Q1025.27 197.88 1023.84 196.48Q1022.42 195.07 1022.42 192.60L1022.42 189.48Q1022.42 187.01 1023.84 185.60Q1025.27 184.20 1027.60 184.20Q1029.16 184.20 1030.32 184.82Q1031.49 185.45 1032.14 186.58Q1032.78 187.70 1032.78 189.24L1032.78 191.59L1024.53 191.59L1024.53 192.84Q1024.53 194.30 1025.37 195.16Q1026.21 196.01 1027.60 196.01Q1028.80 196.01 1029.58 195.54Q1030.36 195.07 1030.53 194.28L1032.69 194.28Q1032.47 195.94 1031.08 196.91Q1029.69 197.88 1027.60 197.88M1024.53 189.24L1024.53 189.91L1030.67 189.91L1030.67 189.24Q1030.67 187.68 1029.87 186.83Q1029.06 185.98 1027.60 185.98Q1026.14 185.98 1025.33 186.83Q1024.53 187.68 1024.53 189.24" fill="white" fill-opacity="0.7"/>
<path d="M1042.53 197.83L1041.47 197.83Q1039.26 197.83 1038.05 196.84Q1036.84 195.84 1036.84 194.02L1039 194.02Q1039 194.93 1039.65 195.44Q1040.30 195.96 1041.47 195.96L1042.53 195.96Q1043.73 195.96 1044.39 195.43Q1045.05 194.90 1045.05 193.94Q1045.05 192.24 1043.49 192.02L1039.84 191.50Q1038.50 191.30 1037.75 190.38Q1037.01 189.46 1037.01 187.94Q1037.01 186.22 1038.20 185.23Q1039.38 184.25 1041.47 184.25L1042.53 184.25Q1044.45 184.25 1045.66 185.20Q1046.87 186.14 1046.97 187.68L1044.78 187.68Q1044.74 186.98 1044.12 186.53Q1043.51 186.07 1042.53 186.07L1041.47 186.07Q1040.37 186.07 1039.74 186.58Q1039.12 187.08 1039.12 187.94Q1039.12 189.34 1040.39 189.53L1043.80 190.01Q1047.16 190.49 1047.16 193.94Q1047.16 195.79 1045.95 196.81Q1044.74 197.83 1042.53 197.83" fill="white" fill-opacity="0.7"/>
<path d="M1056.40 197.88Q1055.51 197.88 1054.97 197.35Q1054.43 196.82 1054.43 195.98Q1054.43 195.10 1054.97 194.54Q1055.51 193.99 1056.40 193.99Q1057.29 193.99 1057.83 194.54Q1058.37 195.10 1058.37 195.98Q1058.37 196.82 1057.83 197.35Q1057.29 197.88 1056.40 197.88" fill="white" fill-opacity="0.7"/>
<path d="M76.11 136.06L66.42 136.06L84.56 65.98L97.14 65.98L115.18 136.06L105.49 136.06L101.07 117.82L80.53 117.82L76.11 136.06M87.54 88.92L82.45 109.95L99.15 109.95L94.16 89.02Q92.72 83.26 91.86 79.23Q90.99 75.20 90.80 73.76Q90.61 75.20 89.74 79.23Q88.88 83.26 87.54 88.92M137.55 136.06L128.05 136.06L128.05 65.98L150.80 65.98Q157.52 65.98 162.42 68.57Q167.31 71.16 170 75.82Q172.69 80.48 172.69 86.91Q172.69 93.24 170 97.90Q167.31 102.56 162.37 105.15Q157.42 107.74 150.80 107.74L137.55 107.74L137.55 136.06M137.55 74.43L137.55 99.29L150.80 99.29Q156.37 99.29 159.63 95.88Q162.90 92.48 162.90 86.91Q162.90 81.24 159.63 77.84Q156.37 74.43 150.80 74.43L137.55 74.43M225.10 136.06L186.90 136.06L186.90 127.42L201.20 127.42L201.20 74.62L186.90 74.62L186.90 65.98L225.10 65.98L225.10 74.62L210.80 74.62L210.80 127.42L225.10 127.42L225.10 136.06M263.98 137.02Q253.62 137.02 247.47 131.60Q241.33 126.17 241.33 116.67L250.83 116.67Q250.83 122.24 254.38 125.40Q257.94 128.57 263.98 128.57Q269.74 128.57 273.15 125.36Q276.56 122.14 276.56 116.76Q276.56 112.73 274.35 109.71Q272.14 106.68 268.11 105.63L257.74 102.84Q250.93 100.92 246.94 95.88Q242.96 90.84 242.96 83.93Q242.96 78.27 245.50 74Q248.05 69.72 252.66 67.37Q257.26 65.02 263.31 65.02Q269.46 65.02 274.11 67.37Q278.77 69.72 281.36 73.95Q283.95 78.17 283.95 83.74L274.54 83.74Q274.54 79.13 271.42 76.25Q268.30 73.37 263.31 73.37Q258.32 73.37 255.30 76.25Q252.27 79.13 252.27 83.74Q252.27 87.48 254.29 90.03Q256.30 92.57 259.95 93.63L270.61 96.51Q277.81 98.43 281.84 103.85Q285.87 109.28 285.87 116.76Q285.87 122.91 283.18 127.47Q280.50 132.03 275.55 134.52Q270.61 137.02 263.98 137.02M342.51 136.06L301.71 136.06L301.71 65.98L342.51 65.98L342.51 74.52L311.12 74.52L311.12 95.36L339.15 95.36L339.15 103.61L311.12 103.61L311.12 127.52L342.51 127.52L342.51 136.06M383.60 136.06L374.10 136.06L374.10 74.62L355.09 74.62L355.09 65.98L402.51 65.98L402.51 74.62L383.60 74.62L383.60 136.06M436.40 137.02Q426.51 137.02 421.18 131.55Q415.86 126.08 415.86 116.67L415.86 65.98L425.36 65.98L425.36 116.67Q425.36 122.24 428.10 125.40Q430.83 128.57 436.40 128.57Q441.87 128.57 444.70 125.40Q447.54 122.24 447.54 116.67L447.54 65.98L457.04 65.98L457.04 116.67Q457.04 126.17 451.71 131.60Q446.38 137.02 436.40 137.02M551.98 137.02Q542.29 137.02 536.58 131.60Q530.86 126.17 530.86 116.67L530.86 85.28Q530.86 75.87 536.58 70.44Q542.29 65.02 551.98 65.02Q561.58 65.02 567.30 70.49Q573.01 75.96 573.01 85.28L563.50 85.28Q563.50 79.61 560.43 76.54Q557.36 73.47 551.98 73.47Q546.51 73.47 543.44 76.54Q540.37 79.61 540.37 85.28L540.37 116.67Q540.37 122.43 543.44 125.50Q546.51 128.57 551.98 128.57Q557.36 128.57 560.43 125.50Q563.50 122.43 563.50 116.67L563.50 107.55L549.87 107.55L549.87 99.10L573.01 99.10L573.01 116.67Q573.01 126.08 567.30 131.55Q561.58 137.02 551.98 137.02M609.20 137.02Q599.60 137.02 594.03 131.45Q588.46 125.88 588.46 115.71L588.46 86.24Q588.46 76.16 594.03 70.59Q599.60 65.02 609.20 65.02Q618.80 65.02 624.37 70.54Q629.94 76.06 629.94 86.24L629.94 115.71Q629.94 125.88 624.37 131.45Q618.80 137.02 609.20 137.02M609.20 128.57Q614.58 128.57 617.50 125.50Q620.43 122.43 620.43 116.67L620.43 85.28Q620.43 79.61 617.55 76.54Q614.67 73.47 609.20 73.47Q603.73 73.47 600.85 76.54Q597.97 79.61 597.97 85.28L597.97 116.67Q597.97 122.43 600.90 125.50Q603.82 128.57 609.20 128.57M673.14 136.06L660.37 136.06L642.42 65.98L652.21 65.98L663.82 113.21Q664.98 117.72 665.79 121.90Q666.61 126.08 666.99 128.28Q667.28 126.08 668.19 121.85Q669.10 117.63 670.16 113.12L681.39 65.98L691.18 65.98L673.14 136.06M803.31 136.06L762.51 136.06L762.51 65.98L803.31 65.98L803.31 74.52L771.92 74.52L771.92 95.36L799.95 95.36L799.95 103.61L771.92 103.61L771.92 127.52L803.31 127.52L803.31 136.06M838.06 136.06L819.25 136.06L819.25 65.98L838.06 65.98Q844.88 65.98 849.92 68.62Q854.96 71.26 857.74 76.01Q860.53 80.76 860.53 87.20L860.53 114.75Q860.53 121.18 857.74 125.98Q854.96 130.78 849.92 133.42Q844.88 136.06 838.06 136.06M828.75 74.43L828.75 127.61L838.06 127.61Q844.11 127.61 847.57 124.16Q851.02 120.70 851.02 114.75L851.02 87.20Q851.02 81.24 847.57 77.84Q844.11 74.43 838.06 74.43L828.75 74.43M916.30 136.06L878.10 136.06L878.10 127.42L892.40 127.42L892.40 74.62L878.10 74.62L878.10 65.98L916.30 65.98L916.30 74.62LNaN 74.62LNaN 127.42L916.30 127.42L916.30 136.06M955.18 137.02Q944.82 137.02 938.67 131.60Q932.53 126.17 932.53 116.67L942.03 116.67Q942.03 122.24 945.58 125.40Q949.14 128.57 955.18 128.57Q960.94 128.57 964.35 125.36Q967.76 122.14 967.76 116.76Q967.76 112.73 965.55 109.71Q963.34 106.68 959.31 105.63L948.94 102.84Q942.13 100.92 938.14 95.88Q934.16 90.84 934.16 83.93Q934.16 78.27 936.70 74Q939.25 69.72 943.86 67.37Q948.46 65.02 954.51 65.02Q960.66 65.02 965.31 67.37Q969.97 69.72 972.56 73.95Q975.15 78.17 975.15 83.74L965.74 83.74Q965.74 79.13 962.62 76.25Q959.50 73.37 954.51 73.37Q949.52 73.37 946.50 76.25Q943.47 79.13 943.47 83.74Q943.47 87.48 945.49 90.03Q947.50 92.57 951.15 93.63L961.81 96.51Q969.01 98.43 973.04 103.85Q977.07 109.28 977.07 116.76Q977.07 122.91 974.38 127.47Q971.70 132.03 966.75 134.52Q961.81 137.02 955.18 137.02M1017.20 136.06L1007.70 136.06L1007.70 74.62L988.69 74.62L988.69 65.98L1036.11 65.98L1036.11 74.62L1017.20 74.62L1017.20 136.06M1059.15 136.06L1049.74 136.06L1049.74 65.98L1071.44 65.98Q1077.87 65.98 1082.67 68.52Q1087.47 71.07 1090.16 75.63Q1092.85 80.19 1092.85 86.33Q1092.85 93.44 1089.25 98.52Q1085.65 103.61 1079.70 105.72L1093.81 136.06L1083.34 136.06LNaN 106.78L1059.15 106.78L1059.15 136.06M1059.15 74.43L1059.15 98.33L1071.44 98.33Q1076.82 98.33 1079.94 95.07Q1083.06 91.80 1083.06 86.43Q1083.06 80.96 1079.89 77.69Q1076.72 74.43 1071.44 74.43L1059.15 74.43M1146.70 136.06L1108.50 136.06L1108.50 127.42L1122.80 127.42L1122.80 74.62L1108.50 74.62L1108.50 65.98L1146.70 65.98L1146.70 74.62L1132.40 74.62L1132.40 127.42L1146.70 127.42L1146.70 136.06M1185.97 137.02Q1176.27 137.02 1170.56 131.60Q1164.85 126.17 1164.85 116.67L1164.85 85.28Q1164.85 75.87 1170.56 70.44Q1176.27 65.02 1185.97 65.02Q1195.57 65.02 1201.28 70.49Q1206.99 75.96 1206.99 85.28L1197.49 85.28Q1197.49 79.61 1194.42 76.54Q1191.34 73.47 1185.97 73.47Q1180.50 73.47 1177.42 76.54Q1174.35 79.61 1174.35 85.28L1174.35 116.67Q1174.35 122.43 1177.42 125.50Q1180.50 128.57 1185.97 128.57Q1191.34 128.57 1194.42 125.50Q1197.49 122.43 1197.49 116.67L1206.99 116.67Q1206.99 126.08 1201.28 131.55Q1195.57 137.02 1185.97 137.02M1247.60 136.06L1238.10 136.06L1238.10 74.62L1219.09 74.62L1219.09 65.98L1266.51 65.98L1266.51 74.62L1247.60 74.62L1247.60 136.06M1300.40 137.02Q1290.80 137.02 1285.23 131.45Q1279.66 125.88 1279.66 115.71L1279.66 86.24Q1279.66 76.16 1285.23 70.59Q1290.80 65.02 1300.40 65.02Q1310 65.02 1315.57 70.54Q1321.14 76.06 1321.14 86.24L1321.14 115.71Q1321.14 125.88 1315.57 131.45Q1310 137.02 1300.40 137.02M1300.40 128.57Q1305.78 128.57 1308.70 125.50Q1311.63 122.43 1311.63 116.67L1311.63 85.28Q1311.63 79.61 1308.75 76.54Q1305.87 73.47 1300.40 73.47Q1294.93 73.47 1292.05 76.54Q1289.17 79.61 1289.17 85.28L1289.17 116.67Q1289.17 122.43 1292.10 125.50Q1295.02 128.57 1300.40 128.57M1356.46 136.06L1337.65 136.06L1337.65 65.98L1356.46 65.98Q1363.28 65.98 1368.32 68.62Q1373.36 71.26 1376.14 76.01Q1378.93 80.76 1378.93 87.20L1378.93 114.75Q1378.93 121.18 1376.14 125.98Q1373.36 130.78 1368.32 133.42Q1363.28 136.06 1356.46 136.06M1347.15 74.43L1347.15 127.61L1356.46 127.61Q1362.51 127.61 1365.97 124.16Q1369.42 120.70 1369.42 114.75L1369.42 87.20Q1369.42 81.24 1365.97 77.84Q1362.51 74.43 1356.46 74.43L1347.15 74.43M1434.70 136.06L1396.50 136.06L1396.50 127.42L1410.80 127.42L1410.80 74.62L1396.50 74.62L1396.50 65.98L1434.70 65.98L1434.70 74.62L1420.40 74.62L1420.40 127.42L1434.70 127.42L1434.70 136.06M1473.58 137.02Q1463.22 137.02 1457.07 131.60Q1450.93 126.17 1450.93 116.67L1460.43 116.67Q1460.43 122.24 1463.98 125.40Q1467.54 128.57 1473.58 128.57Q1479.34 128.57 1482.75 125.36Q1486.16 122.14 1486.16 116.76Q1486.16 112.73 1483.95 109.71Q1481.74 106.68 1477.71 105.63L1467.34 102.84Q1460.53 100.92 1456.54 95.88Q1452.56 90.84 1452.56 83.93Q1452.56 78.27 1455.10 74Q1457.65 69.72 1462.26 67.37Q1466.86 65.02 1472.91 65.02Q1479.06 65.02 1483.71 67.37Q1488.37 69.72 1490.96 73.95Q1493.55 78.17 1493.55 83.74L1484.14 83.74Q1484.14 79.13 1481.02 76.25Q1477.90 73.37 1472.91 73.37Q1467.92 73.37 1464.90 76.25Q1461.87 79.13 1461.87 83.74Q1461.87 87.48 1463.89 90.03Q1465.90 92.57 1469.55 93.63L1480.21 96.51Q1487.41 98.43 1491.44 103.85Q1495.47 109.28 1495.47 116.76Q1495.47 122.91 1492.78 127.47Q1490.10 132.03 1485.15 134.52Q1480.21 137.02 1473.58 137.02M1520.05 136.06L1510.54 136.06L1510.54 65.98L1520.05 65.98L1520.05 95.55L1541.55 95.55L1541.55 65.98L1551.06 65.98L1551.06 136.06L1541.55 136.06L1541.55 104.19L1520.05 104.19L1520.05 136.06M1573.71 136.06L1564.02 136.06L1582.16 65.98L1594.74 65.98L1612.78 136.06L1603.09 136.06L1598.67 117.82L1578.13 117.82L1573.71 136.06M1585.14 88.92L1580.05 109.95L1596.75 109.95L1591.76 89.02Q1590.32 83.26 1589.46 79.23Q1588.59 75.20 1588.40 73.76Q1588.21 75.20 1587.34 79.23Q1586.48 83.26 1585.14 88.92" fill="url(#paint2_linear_0_1)"/>
<g id="Group 1">
<rect id="Rectangle 1" x="26" y="168" width="12" height="184" rx="5" fill="url(#paint3_linear_0_1)" fill-opacity="0.9"/>
</g>
<g id="Group 1_2">
<rect id="Rectangle 2" x="26" y="38" width="12" height="119" rx="5" fill="url(#paint4_linear_0_1)" fill-opacity="0.9"/>
</g>
<ellipse id="Ellipse 1" cx="148.5" cy="573" rx="215.5" ry="214" fill="url(#paint5_linear_0_1)" fill-opacity="0.4"/>
<rect id="Rectangle 3" x="1229" y="48" width="300" height="300" rx="25" fill="#FFFBFB" fill-opacity="0.9"/>
<g id="placeholder-logo"><g transform="translate(1229,48) translate(0.0,60.0) scale(1.2000)"><g fill="#666666">
  <path d="m88.05,27.65c-3.15,4 -3.2,51.2 -0.05,54.35c2.75,2.75 71.7,3.15 74.45,0.45c2.85,-2.9 2.3,-53.85 -0.65,-55.9c-1.95,-1.35 -7.15,-1.55 -36.95,-1.55l-34.7,0l-2.1,2.65zm69.45,3.35c0.65,0 1,8.6 1,23.75l0,23.75l-33,0l-33,0l-0.25,-23c-0.15,-12.6 -0.1,-23.45 0.15,-24.1c0.35,-0.85 8.9,-1.05 32.25,-0.75c17.55,0.2 32.3,0.35 32.85,0.35z"/>
  <path d="m99.15,37.3c-6.85,7.35 4.25,17.35 11.4,10.25c1.35,-1.35 2.45,-3.65 2.45,-5.05c0,-6.45 -9.35,-9.95 -13.85,-5.2z"/>
  <path d="m135,42.5c-0.7,0.85 -5.25,5.15 -10.1,9.6l-8.85,8.1l-3.2,-3.2l-3.15,-3.15l-6.35,6.3c-5.55,5.5 -6.35,6.75 -6.35,10.05l0,3.8l28.5,0l28.5,0l0,-8.6l0,-8.55l-8.15,-7.7c-9.35,-8.85 -9.15,-8.7 -10.85,-6.65zm7.25,15.2c0.95,0.9 1.75,2.9 1.75,4.45c6.35,-5.05 4.75,-7.15 4.9,-11.55c0.95,0 0,0 0,0l-6.65,7.1z"/>
  <path d="m53.65,110.75c0.1,4.8 0.45,8.65 0.75,8.5c0.35,-0.15 1.3,-0.25 2.1,-0.25c1.1,0 1.5,-1.2 1.5,-4.75l0,-4.75l3.25,5c4.9,7.5 6.2,6.75 6.55,-3.75c0.25,-8.15 0.15,-8.75 -1.7,-8.75c-1.65,0 -2.05,0.8 -2.3,4.75l-0.3,4.75l-2.8,-4.75c-4.85,-8.25 -7.25,-6.9 -7.05,4z"/>
  <path d="m91,108.9c0,9.65 0.3,10.1 6.1,10.1c5.8,0 7.15,-2.65 1.65,-3.2l-3.25,-0.3l-0.3,-6.75c-0.25,-5.95 -0.55,-6.75 -2.25,-6.75c-1.75,0 -1.95,0.7 -1.95,6.9z"/>
  <path d="m151,102.45c0,0.25 1,2.15 2.25,4.2c1.2,2.1 2.45,5.8 2.75,8.25c0.65,5.9 4,6.95 4,1.25c0.05,-2.1 1.25,-5.85 2.95,-8.9l2.9,-5.25l-2.5,0c-1.8,0 -2.8,0.85 -3.75,3.1l-1.3,3.05l-1.25,-3.05c-1.1,-2.6 -6.05,-4.8 -6.05,-2.65z"/>
  <path d="m191,107.45c0,9.05 3.4,8.85 4.25,-0.2c0.45,-5 0.35,-5.25 -1.9,-5.25c-2.2,0 -2.35,0.4 -2.35,5.45z"/>
  <path d="m180.8,104.75c-1.3,5.35 0.65,13.6 3.45,14.35c2.3,0.6 2.75,0.4 2.75,-1.2c0,-1.05 -0.45,-1.9 -1,-1.9c-0.55,0 -1,-1.6 -1,-3.5c0,-1.95 0.45,-3.5 1,-3.5c0.55,0 1,-0.7 1,-1.5c0,-0.85 -0.45,-1.5 -1,-1.5c-0.55,0 -1,-0.7 -1,-1.5c0,-2.1 -3.65,-1.9 -4.2,0.25z"/>
  <path d="m71.55,106.55c-2.2,2.25 -2.05,9.7 0.3,11.8c4.5,4.1 10.15,0.75 10.15,-6.1c0,-4.85 -2,-7.25 -6,-7.25c-1.55,0 -3.55,0.7 -4.45,1.55zm6.25,5.8c0.25,3.05 0,3.65 -1.6,3.65c-2.3,0 -3.25,-2.65 -2.05,-5.85c1.25,-3.35 3.3,-2.1 3.65,2.2z"/>
  <path d="m105.75,106.1c-2.5,1.45 -2.45,9.95 0.1,12.25c4.3,3.9 10.15,0.35 10.15,-6.2c0,-6 -5.15,-9.05 -10.25,-6.05zm6.05,6.25c0.25,3.05 0,3.65 -1.6,3.65c-2.3,0 -3.25,-2.65 -2.05,-5.85c1.25,-3.35 3.3,-2.1 3.65,2.2z"/>
  <path d="m119.2,106.2c-3.8,3.8 -0.4,12.55 4.4,11.35c1.9,-0.45 2.45,-0.3 2.15,0.65c-0.25,0.7 -1.55,1.2 -2.85,1.1c-4.05,-0.3 -5.35,0.45 -3.85,2.25c0.85,1.05 2.6,1.45 5.35,1.25l4.1,-0.3l0.3,-8.75l0.3,-8.75l-4.35,0c-2.4,0 -4.9,0.55 -5.55,1.2zm6.6,4.45c0.4,2.85 -2.15,4.85 -3.75,2.95c-0.9,-1.1 -0.9,-2 -0.05,-3.6c1.35,-2.5 3.4,-2.15 3.8,0.65z"/>
  <path d="m133.55,106.55c-2.2,2.25 -2.05,9.7 0.3,11.8c4.5,4.1 10.15,0.75 10.15,-6.1c0,-4.85 -2,-7.25 -6,-7.25c-1.55,0 -3.55,0.7 -4.45,1.55zm6.25,5.8c0.25,3.05 0,3.65 -1.6,3.65c-2.3,0 -3.25,-2.65 -2.05,-5.85c1.25,-3.35 3.3,-2.1 3.65,2.2z"/>
  <path d="m167.65,106.85c-3.9,4.3 -0.75,13.15 4.7,13.15c2.4,0 5.65,-2.75 5.65,-4.85c0,-1.4 -2.65,-1.55 -3.5,-0.15c-0.95,1.55 -4.5,1.15 -4.5,-0.5c0,-1.1 1.1,-1.5 4,-1.5c3.15,0 4,-0.35 4,-1.8c0,-5.3 -6.85,-8.25 -10.35,-4.35z"/>
  <path d="m191,117.5c0,2.15 0.4,2.6 2.25,2.3c1.5,-0.2 2.25,-1 2.25,-2.3c0,-1.3 -0.75,-2.1 -2.25,-2.3c-1.85,-0.3 -2.25,0.15 -2.25,2.3z"/>
 </g></g></g>
</g>
<defs>
<linearGradient id="paint0_linear_0_1" x1="0" y1="198" x2="1584" y2="198" gradientUnits="userSpaceOnUse">
<stop stop-color="#3D052C"/>
<stop offset="1"/>
</linearGradient>
<linearGradient id="paint1_linear_0_1" x1="323" y1="-224" x2="323" y2="352" gradientUnits="userSpaceOnUse">
<stop stop-color="#28F6F2" stop-opacity="0.4"/>
<stop offset="1" stop-color="#17908E" stop-opacity="0.7"/>
</linearGradient>
<linearGradient id="paint2_linear_0_1" x1="148.5" y1="38" x2="148.5" y2="140" gradientUnits="userSpaceOnUse">
<stop stop-color="white"/>
<stop offset="1" stop-color="#999999"/>
</linearGradient>
<linearGradient id="paint3_linear_0_1" x1="38" y1="260" x2="26" y2="260" gradientUnits="userSpaceOnUse">
<stop stop-color="#D9D9D9"/>
<stop offset="1" stop-color="#737373"/>
</linearGradient>
<linearGradient id="paint4_linear_0_1" x1="38" y1="97.5" x2="26" y2="97.5" gradientUnits="userSpaceOnUse">
<stop stop-color="#D9D9D9"/>
<stop offset="1" stop-color="#737373"/>
</linearGradient>
<linearGradient id="paint5_linear_0_1" x1="27.5" y1="434.5" x2="148.5" y2="787" gradientUnits="userSpaceOnUse">
<stop stop-color="#2E21BC"/>
<stop offset="1" stop-color="#150F56"/>
</linearGradient>
<clipPath id="clip0_0_1">
<rect width="1584" height="396" fill="white"/>
</clipPath>
</defs>
</svg>
